<svg width="1478" height="328" viewBox="0 0 1478 328" fill="none" xmlns="http://www.w3.org/2000/svg">
<path d="M1464.13 215.78C1453.93 215.78 1447.29 208.3 1447.29 196.22V106.94C1447.29 99.12 1447.29 92.65 1447.46 87.89C1447.63 82.96 1447.8 79.21 1447.97 76.33C1448.31 73.27 1448.48 70.72 1448.82 68.85C1432.49 68.85 1420.25 72.25 1411.92 79.05C1403.58 85.85 1399.33 97.08 1399.33 112.9L1398.99 203.88C1398.99 236.36 1419.91 254.39 1446.27 253.37C1462.94 252.69 1477.22 244.87 1477.22 227.35C1477.22 220.04 1476.03 214.25 1476.03 214.25C1472.12 215.1 1469.4 215.78 1464.13 215.78Z" fill="white"/>
<path d="M355.35 126.5C355.35 89.26 324.74 64.77 280.18 64.77C237.84 64.77 193.45 95.21 193.45 163.07C193.45 214.94 224.74 253.2 278.99 253.2C309.43 253.2 342.93 235.85 351.44 223.95C351.44 223.95 345.66 201.67 329.84 201.67C321.51 201.67 315.39 204.9 308.58 207.8C301.44 210.69 293.11 213.24 282.22 213.24C267.09 213.24 241.06 207.12 241.06 174.64C241.06 174.64 253.3 178.21 281.19 178.21C340.89 178.03 355.35 152.86 355.35 126.5ZM282.05 105.25C302.63 105.25 312.49 116.47 312.49 126.68C312.49 138.76 301.61 146.58 281.88 146.58C253.31 146.58 242.42 142.5 242.42 142.5C242.43 125.14 256.04 105.25 282.05 105.25Z" fill="#FFD111"/>
<path d="M466.74 213.4C446.16 213.4 435.45 196.05 433.58 188.57C431.54 181.09 430.18 170.55 430.18 159.66L430.52 103.88H445.48C457.55 103.88 466.91 100.31 473.37 93.34C480 86.2 483.23 76.84 483.23 64.94H430.51L430.17 40.11C430.17 32.29 430.17 25.82 430.34 21.06C430.51 16.13 430.68 12.38 430.85 9.48999C431.02 6.42999 431.36 3.88001 431.7 2.01001C415.72 2.01001 403.47 5.40999 395.14 12.21C386.81 19.01 382.55 30.24 382.55 46.05L382.21 169.85C382.21 220.52 406.36 253.69 452.45 253.69C475.24 253.69 491.91 241.45 491.91 222.91C491.91 216.28 491.06 212.87 490.38 210.83C486.46 211.7 478.98 213.4 466.74 213.4Z" fill="#FFD111"/>
<path d="M582.38 215.78C572.18 215.78 565.54 208.3 565.54 196.22V106.94C565.54 99.12 565.54 92.65 565.71 87.89C565.88 82.96 566.05 79.21 566.22 76.33C566.56 73.27 566.73 70.72 567.07 68.85C550.74 68.85 538.5 72.25 530.17 79.05C521.84 85.85 517.58 97.08 517.58 112.9L517.24 203.88C517.24 236.36 538.16 254.39 564.52 253.37C581.19 252.69 595.47 244.87 595.47 227.35C595.47 220.04 594.28 214.25 594.28 214.25C590.37 215.1 587.65 215.78 582.38 215.78Z" fill="#FFD111"/>
<path d="M529.32 51C533.06 52.87 537.14 53.89 541.39 53.89C551.25 53.89 559.07 49.13 564.86 39.78C567.24 35.53 568.43 30.94 568.43 26C568.43 21.41 567.41 17.16 565.2 13.08C562.99 8.99999 559.76 5.94001 555.5 3.73001C551.76 1.52001 547.85 0.5 543.77 0.5C539.18 0.5 534.76 1.86 530.51 4.41C526.26 6.96 522.86 10.53 520.48 15.12C518.1 19.2 516.91 23.8 516.91 28.89C516.91 33.48 517.93 37.73 520.14 41.64C522.18 45.39 525.24 48.62 529.32 51Z" fill="#FFD111"/>
<path d="M700.57 69.1899C690.54 69.1899 680.5 70.3799 670.47 72.5899C660.44 74.7999 651.25 79.0499 643.09 85.3399C634.93 91.6299 628.29 100.3 623.2 111.53C618.1 122.75 615.55 137.04 615.55 154.55V205.74C615.55 221.56 617.59 236.18 627.11 243.32C637.49 251.14 649.56 251.48 665.54 251.48C665.2 249.95 665.03 245.36 664.69 242.29C664.35 239.4 664.18 235.49 664.18 230.73C664.01 225.8 664.01 219.51 664.01 211.68V146.04C664.01 130.57 666.56 110.67 693.77 108.46C709.08 107.1 722.68 101.32 722.68 84.6499C722.68 80.7399 721.83 73.4299 719.96 69.1799H700.57V69.1899Z" fill="#FFD111"/>
<path d="M1188.72 69.1899C1178.69 69.1899 1168.65 70.3799 1158.62 72.5899C1148.59 74.7999 1139.4 79.0499 1131.24 85.3399C1123.08 91.6299 1116.44 100.3 1111.35 111.53C1106.25 122.75 1103.7 137.04 1103.7 154.55V205.74C1103.7 221.56 1105.74 236.18 1115.26 243.32C1125.64 251.14 1137.71 251.48 1153.69 251.48C1153.35 249.95 1153.18 245.36 1152.84 242.29C1152.5 239.4 1152.33 235.49 1152.33 230.73C1152.16 225.8 1152.16 219.51 1152.16 211.68V146.04C1152.16 130.57 1154.71 110.67 1181.92 108.46C1197.23 107.1 1210.83 101.32 1210.83 84.6499C1210.83 80.7399 1209.98 73.4299 1208.11 69.1799H1188.72V69.1899Z" fill="white"/>
<path d="M85.81 64.77C30.03 64.77 0.780029 103.88 0.780029 151.5C0.780029 195.54 27.65 236.7 76.46 236.7C101.8 236.7 116.42 225.98 120.16 222.75V244.86C120.16 270.2 110.3 287.03 84.79 287.03C72.55 287.03 63.36 283.63 54.86 279.72C47.38 276.15 41.77 271.9 34.29 271.9C15.24 271.9 9.97003 295.37 10.14 295.54C24.43 313.91 57.08 327.51 84.45 327.51C138.36 327.51 168.12 296.05 168.12 233.64V160.69C167.94 103.72 142.77 64.77 85.81 64.77ZM85.47 194.53C64.55 194.53 48.57 181.27 48.57 152.19C48.57 121.24 64.89 105.08 85.47 105.08C105.71 105.08 120.5 117.33 120.5 149.81C120.5 183.13 104.51 194.53 85.47 194.53Z" fill="#FFD111"/>
<path d="M1051.32 83.35C1044.55 77.21 1036.17 72.56 1026.4 69.51C1016.31 66.37 1004.89 64.77 992.43 64.77C979.42 64.77 968.07 66.04 958.71 68.54C949.54 71 941.95 74.29 936.15 78.33C930.54 82.23 926.38 86.57 923.77 91.2C921.2 95.76 919.95 100.36 919.95 105.24V115.49C920.47 115.11 921 114.74 921.52 114.38C925.57 111.55 930.25 109.14 935.43 107.23C940.47 105.37 946.46 103.88 953.24 102.79C959.97 101.71 968.12 101.16 977.46 101.16C991.71 101.16 1002.06 102.56 1009.11 105.45C1017.8 109.02 1022.58 116.76 1022.58 127.25V142.01H1006.33C973.09 142.01 948.73 147.01 933.94 156.86C919.84 166.26 912.99 180.1 912.99 199.17C912.99 208.78 915.12 216.64 919.49 223.2C924.02 229.99 929.86 235.63 936.87 239.96C944.11 244.43 952.27 247.78 961.14 249.91C970.21 252.09 979.21 253.2 987.89 253.2C1004.67 253.2 1018.82 251.86 1029.97 249.21C1040.43 246.73 1048.91 242.44 1055.18 236.48C1061.4 230.56 1065.91 222.4 1068.58 212.22C1071.43 201.35 1072.88 187.36 1072.88 170.64V141.07C1072.88 127.87 1070.94 116.31 1067.11 106.74C1063.37 97.33 1058.05 89.46 1051.32 83.35ZM1023.99 190.47C1023.99 201.5 1020.86 209.47 1014.68 214.19C1009.07 218.47 1002.4 220.64 994.87 220.64C983.92 220.64 976.01 218.64 970.67 214.52C966.68 211.44 961.91 205.61 961.91 195.35C961.91 186.38 965.93 179.33 973.53 174.97C980.1 171.2 990.03 169.36 1003.91 169.36H1023.99V190.47Z" fill="white"/>
<path d="M833.17 268.69C829.43 266.48 825.52 265.46 821.44 265.46C816.85 265.46 812.43 266.82 808.18 269.37C803.93 271.92 800.53 275.49 798.15 280.08C795.77 284.16 794.58 288.75 794.58 293.85C794.58 298.44 795.6 302.69 797.81 306.6C799.85 310.34 802.91 313.58 807 315.95C810.74 317.82 814.82 318.84 819.07 318.84C828.93 318.84 836.76 314.08 842.54 304.73C844.92 300.48 846.11 295.89 846.11 290.96C846.11 286.37 845.09 282.12 842.88 278.03C840.65 273.96 837.42 270.9 833.17 268.69Z" fill="white"/>
<path d="M805.65 119.27C815.67 110.45 829.88 105.98 847.89 105.98C857.97 105.98 867.52 107.52 876.27 110.57C878.03 111.18 879.68 111.81 881.24 112.45C883.28 113.29 885.5 111.79 885.5 109.59V102.73C885.5 97.55 884.34 92.89 881.96 88.51C879.49 83.98 876.02 79.91 871.64 76.42C867.12 72.83 861.84 69.96 855.95 67.89C850.05 65.82 843.56 64.78 836.68 64.78C820.62 64.78 806.24 67.37 793.94 72.49C781.68 77.59 771.26 84.54 762.97 93.16C754.66 101.79 748.27 111.96 743.95 123.41C739.59 134.95 737.39 147.34 737.39 160.23C737.39 174.24 739.7 187.18 744.27 198.69C748.79 210.11 755.21 219.92 763.34 227.83C771.51 235.79 781.41 242.07 792.75 246.49C794.73 247.26 796.76 247.96 798.82 248.58C806.32 250.83 812.55 252.06 821.99 252.87C824.85 253.11 827.76 253.2 830.72 253.2C838.82 253.2 846.35 252.08 853.1 249.86C859.77 247.67 865.55 244.69 870.27 241C874.9 237.38 878.61 233.11 881.3 228.33C883.89 223.73 885.15 218.99 885.15 213.84V208.94C885.15 206.81 883.05 205.32 881.04 206.03C878.56 206.91 876 207.7 873.36 208.41C865.46 210.55 855.83 211.63 844.74 211.63C828.3 211.63 814.99 207.07 805.2 198.07C795.23 188.92 790.17 174.88 790.17 156.35C790.16 140.79 795.37 128.32 805.65 119.27Z" fill="white"/>
<path d="M1311.42 268.69C1307.68 266.48 1303.77 265.46 1299.69 265.46C1295.1 265.46 1290.67 266.82 1286.42 269.37C1282.17 271.92 1278.77 275.49 1276.39 280.08C1274.01 284.16 1272.82 288.75 1272.82 293.85C1272.82 298.44 1273.84 302.69 1276.05 306.6C1278.09 310.34 1281.15 313.58 1285.24 315.95C1288.98 317.82 1293.06 318.84 1297.31 318.84C1307.17 318.84 1315 314.08 1320.78 304.73C1323.16 300.48 1324.35 295.89 1324.35 290.96C1324.35 286.37 1323.33 282.12 1321.12 278.03C1318.9 273.96 1315.67 270.9 1311.42 268.69Z" fill="white"/>
<path d="M1357.42 160.38C1348.62 152.42 1336.78 147.2 1322.21 144.88C1312.23 143.26 1304.11 141.78 1298.08 140.48C1291.76 139.12 1287.05 137.83 1283.7 136.53C1279.18 134.79 1276.3 132.77 1274.66 130.19C1273.14 127.81 1272.37 124.99 1272.37 121.81C1272.37 117.39 1274.13 111.02 1282.53 105.77C1288.4 102.1 1297.72 100.39 1311.85 100.39C1325.41 100.39 1337.59 102.01 1348.05 105.2C1354.45 107.16 1360.26 109.48 1365.41 112.14V103.42C1365.41 91.41 1360.51 82.31 1350.42 75.62C1339.58 68.43 1324.03 64.78 1304.21 64.78C1294.01 64.78 1283.88 66.16 1274.11 68.87C1264.5 71.54 1255.8 75.59 1248.27 80.89C1240.9 86.08 1234.91 92.59 1230.46 100.26C1226.12 107.72 1223.92 116.73 1223.92 127.02C1223.92 140.42 1227.51 150.24 1234.9 157.05C1242.62 164.16 1254.59 168.95 1270.44 171.27C1280.45 172.67 1288.53 173.98 1294.45 175.16C1300.83 176.44 1305.65 177.86 1309.17 179.48C1313.53 181.5 1316.47 183.89 1318.15 186.82C1319.67 189.48 1320.43 192.49 1320.43 195.76C1320.43 200.72 1318.67 207.66 1310.3 212.59C1304.59 215.96 1295.6 217.53 1282 217.53C1267.65 217.53 1255.17 215.77 1244.93 212.31C1238.85 210.26 1233.34 207.91 1228.44 205.29V213.12C1228.44 219.09 1229.53 224.58 1231.68 229.46C1233.75 234.17 1236.99 238.08 1241.6 241.44C1246.43 244.96 1253 247.8 1261.13 249.89C1265.49 251.01 1270.43 251.75 1275.85 252.37C1282.56 253.14 1288.89 253.46 1298.96 252.99C1320.52 251.97 1337.71 246.58 1350.09 236.6C1363.44 225.84 1369.93 211.57 1369.93 192.98C1369.92 178.66 1365.83 168 1357.42 160.38Z" fill="white"/>
</svg>
